<svg width="38" height="51" viewBox="0 0 38 51" fill="none" xmlns="http://www.w3.org/2000/svg">
<path d="M12.2568 0.961914C9.62143 0.961914 7.23029 1.25832 5.57175 1.70956C4.7374 1.93518 4.08619 2.20836 3.71989 2.44504C3.58761 2.53131 3.54691 2.57555 3.50621 2.62089C3.54691 2.66624 3.58761 2.71048 3.71989 2.79675C4.08619 3.03343 4.7374 3.30661 5.57175 3.53223C7.23029 3.98347 9.62143 4.27987 12.2568 4.27987C14.8921 4.27987 17.2833 3.98347 18.9418 3.53223C19.7762 3.30661 20.4274 3.03343 20.7937 2.79675C20.9259 2.71048 20.9666 2.66624 21.0073 2.62089C20.9666 2.57555 20.9259 2.53131 20.7937 2.44504C20.4274 2.20836 19.7762 1.93518 18.9418 1.70956C17.2833 1.25832 14.8921 0.961914 12.2568 0.961914ZM3.40446 4.84724V9.27893C4.06584 9.64391 4.93072 10.0089 5.57175 10.1858C7.23029 10.6393 9.62143 10.9379 12.2568 10.9379C14.8921 10.9379 17.2833 10.6393 18.9418 10.1858C20.1628 9.86511 20.3053 9.83193 21.1091 9.27893V4.84724C20.6105 5.08614 20.0407 5.28632 19.3895 5.46328C17.5071 5.97314 15.0142 6.27065 12.2568 6.27065C9.49933 6.27065 7.00644 5.97314 5.12405 5.46328C4.47284 5.28632 3.90304 5.08614 3.40446 4.84724ZM4.27952 11.8669C3.43499 12.1877 2.60063 12.7628 1.9189 13.5038C0.838308 14.6651 0.148438 16.2245 0.148438 17.6623V24.7406C0.148438 25.2936 0.372289 25.7692 0.948198 26.3111C1.52207 26.842 2.448 27.3618 3.58761 27.7821C5.88718 28.6116 9.07198 29.054 12.2568 29.054C15.4314 29.054 18.6264 28.6116 20.9259 27.7821C22.0655 27.3618 22.9915 26.842 23.5613 26.3111C24.1413 25.7692 24.3651 25.2936 24.3651 24.7406V17.6623C24.3651 16.2245 23.6732 14.6651 22.5947 13.5038C21.9129 12.7628 21.0887 12.1877 20.234 11.8669C19.9695 11.9554 19.6846 12.0439 19.3895 12.1213C17.5071 12.6301 15.0142 12.9287 12.2568 12.9287C9.49933 12.9287 7.00644 12.6301 5.12405 12.1213C4.82897 12.0439 4.54407 11.9554 4.27952 11.8669ZM0.148438 28.1581V35.3581C0.148438 35.9111 0.372289 36.3867 0.948198 36.9286C1.52207 37.4595 2.448 37.9793 3.58761 38.3996C5.88718 39.229 9.07198 39.6714 12.2568 39.6714C15.4314 39.6714 18.6264 39.229 20.9259 38.3996C22.0655 37.9793 22.9915 37.4595 23.5613 36.9286C24.1413 36.3867 24.3651 35.9111 24.3651 35.3581V28.1581C23.5715 28.7775 22.6048 29.2641 21.4957 29.6623C18.9113 30.6024 15.584 31.0447 12.2568 31.0447C8.91935 31.0447 5.60228 30.6024 3.01781 29.6623C1.90873 29.2641 0.937006 28.7775 0.148438 28.1581ZM0.148438 38.7756V45.9756C0.148438 46.5286 0.372289 47.0041 0.948198 47.5461C1.52207 48.0769 2.448 48.5968 3.58761 49.017C5.88718 49.8465 9.07198 50.2889 12.2568 50.2889C14.0374 50.2889 15.8384 50.1451 17.4664 49.8797C17.1408 49.382 16.9373 48.8179 16.9373 48.1765C16.9373 46.8714 17.7818 45.8428 18.84 45.2014C19.4811 44.8032 20.2442 44.5267 21.0786 44.3608C21.3024 43.3765 22.035 42.5912 22.8999 42.0604C23.3374 41.7949 23.836 41.5737 24.3651 41.4078V38.7756C23.5715 39.3949 22.6048 39.8816 21.4957 40.2797C18.9113 41.2198 15.584 41.6622 12.2568 41.6622C8.91935 41.6622 5.60228 41.2198 3.01781 40.2797C1.90873 39.8816 0.937006 39.3949 0.148438 38.7756ZM26.797 43.0558C25.5861 43.0558 24.4974 43.3654 23.7953 43.7968C23.5613 43.9405 23.3883 44.0843 23.2459 44.217C24.5279 44.2945 25.7082 44.6373 26.6342 45.2014C27.265 45.5885 27.8246 46.1083 28.1604 46.7387C28.4657 45.9092 29.1169 45.2346 29.8902 44.77C30.0937 44.6484 30.3074 44.5378 30.5312 44.4272C30.3786 44.2281 30.1446 44.0069 29.7986 43.7968C29.0965 43.3654 28.0078 43.0558 26.797 43.0558ZM33.7872 45.7654C32.5764 45.7654 31.4877 46.0751 30.7856 46.5064C30.0733 46.9378 29.819 47.4023 29.819 47.7451C29.819 48.088 30.0733 48.5525 30.7856 48.9838C31.4877 49.4152 32.5764 49.7249 33.7872 49.7249C34.9981 49.7249 36.0868 49.4152 36.7889 48.9838C37.5011 48.5525 37.7555 48.088 37.7555 47.7451C37.7555 47.4023 37.5011 46.9378 36.7889 46.5064C36.0868 46.0751 34.9981 45.7654 33.7872 45.7654ZM22.7371 46.1968C21.5263 46.1968 20.4375 46.5064 19.7355 46.9378C19.0232 47.3691 18.7688 47.8336 18.7688 48.1765C18.7688 48.5193 19.0232 48.9838 19.7355 49.4152C20.4375 49.8465 21.5263 50.1562 22.7371 50.1562C23.9479 50.1562 25.0367 49.8465 25.7388 49.4152C26.451 48.9838 26.7054 48.5193 26.7054 48.1765C26.7054 47.8336 26.451 47.3691 25.7388 46.9378C25.0367 46.5064 23.9479 46.1968 22.7371 46.1968Z" fill="#4AA8ED"/>
</svg>
