<svg xmlns="http://www.w3.org/2000/svg" xmlns:xlink="http://www.w3.org/1999/xlink" viewBox="0 0 327.4 246.4">
  <defs>
    <style>
      .cls-1 {
        fill: #1c75bc;
      }

      .cls-2 {
        fill: url(#Xanh_nuoc_bien);
      }

      .cls-3 {
        fill: url(#Xanh_nuoc_bien-2);
      }

      .cls-4 {
        fill: url(#Xanh_nuoc_bien-3);
      }

      .cls-5 {
        fill: #fff;
      }
    </style>
    <linearGradient id="Xanh_nuoc_bien" data-name="Xanh nuoc bien" x1="28.47" y1="345.73" x2="-39.56" y2="327.5" gradientTransform="translate(45.2 -246.7)" gradientUnits="userSpaceOnUse">
      <stop offset="0" stop-color="#001e6a"/>
      <stop offset="1" stop-color="#55d6ff"/>
    </linearGradient>
    <linearGradient id="Xanh_nuoc_bien-2" x1="219.12" y1="290.83" x2="13.06" y2="235.62" gradientTransform="translate(61.4 -139.2)" xlink:href="#Xanh_nuoc_bien"/>
    <linearGradient id="Xanh_nuoc_bien-3" x1="75.43" y1="356.47" x2="44.95" y2="348.31" gradientTransform="translate(14.8 -204.8)" xlink:href="#Xanh_nuoc_bien"/>
  </defs>
  <g id="Layer_2" data-name="Layer 2">
    <g id="Layer_1-2" data-name="Layer 1">
      <rect class="cls-1" x="117" y="34.4" width="176" height="175.99" rx="4.9" transform="translate(146.6 -109.1) rotate(45)"/>
      <rect class="cls-2" x="9.6" y="59.9" width="60" height="59.99" rx="6.8" transform="translate(75.2 -1.7) rotate(45)"/>
      <rect class="cls-3" x="89.5" y="36" width="176" height="175.99" rx="4.9" transform="translate(139.7 -89.2) rotate(45)"/>
      <rect class="cls-4" x="61.5" y="134.1" width="26.8" height="26.8" rx="2.8" transform="translate(126.3 -9.8) rotate(45)"/>
      <g>
        <path class="cls-5" d="M196.5,109.1H151.9c-11.4,0-19.1-4.7-19.1-11.8s7.1-11.4,17.8-11.7a7.8,7.8,0,0,0,7.5,5.8,7.8,7.8,0,0,0,0-15.5,7.8,7.8,0,0,0-7.5,5.8c-13,.4-21.7,6.6-21.7,15.6s9.3,15.7,23,15.7h44.6c23.6,0,40.2,10.4,40.2,25.4,0,6.4-4,12.7-10.8,17.4s-18,8-29.4,8H121.1a7.8,7.8,0,1,0,0,3.9h75.4c27.6,0,44-14.9,44-29.3C240.5,121.1,222.4,109.1,196.5,109.1ZM158.1,79.8a3.9,3.9,0,1,1-3.9,3.8A3.9,3.9,0,0,1,158.1,79.8Zm-44.5,89.8a3.9,3.9,0,0,1,0-7.7,3.9,3.9,0,1,1,0,7.7Z"/>
        <path class="cls-5" d="M149.5,126.6H194c11.5,0,19.2,4.8,19.2,11.8s-7.1,11.3-17.7,11.7a7.8,7.8,0,1,0,0,3.9c13-.4,21.5-6.6,21.5-15.6s-9.2-15.6-23-15.6H149.5c-23.7,0-40.2-10.5-40.2-25.5,0-12.5,15-25.4,40.2-25.4h74.9a7.8,7.8,0,1,0,0-3.9H149.5c-12.2,0-23.5,3.1-31.6,8.6s-12.5,12.9-12.5,20.7C105.4,114.6,123.5,126.6,149.5,126.6ZM188,156a3.9,3.9,0,1,1,3.9-3.9A3.9,3.9,0,0,1,188,156Zm43.9-89.9A3.9,3.9,0,1,1,228,70,3.8,3.8,0,0,1,231.9,66.1Z"/>
      </g>
    </g>
  </g>
</svg>
